<svg
 width="720.000000pt" height="720.000000pt" viewBox="0 0 720.000000 720.000000"
 preserveAspectRatio="xMidYMid meet">

<g transform="translate(0.000000,720.000000) scale(0.100000,-0.100000)"
fill="#000000" stroke="none">
<path d="M0 3600 l0 -3600 3600 0 3600 0 0 3600 0 3600 -3600 0 -3600 0 0
-3600z m5125 2633 c3 -21 10 -46 16 -55 12 -22 12 -75 0 -82 -5 -4 -12 -28
-16 -55 -10 -73 -56 -187 -82 -204 -7 -4 -13 -14 -13 -21 0 -6 -11 -28 -25
-47 -65 -87 -85 -165 -53 -206 6 -7 4 -13 -4 -15 -16 -6 -16 -181 0 -201 6 -7
18 -62 27 -123 9 -60 22 -120 28 -133 17 -35 16 -436 -1 -453 -6 -6 -12 -30
-12 -52 0 -23 -7 -79 -14 -126 -18 -106 -8 -167 34 -221 37 -46 153 -149 168
-149 6 0 19 -11 30 -25 11 -14 23 -25 27 -25 7 0 165 -141 262 -236 56 -54 63
-65 63 -100 0 -21 -12 -61 -25 -89 -24 -48 -33 -105 -17 -105 8 0 42 -105 42
-131 0 -8 6 -21 13 -27 8 -9 13 -57 15 -146 l4 -133 -27 -22 c-19 -14 -42 -21
-71 -21 -40 0 -49 -5 -112 -66 -59 -56 -70 -71 -75 -107 -3 -24 -29 -87 -57
-142 -27 -55 -50 -103 -50 -108 0 -5 -9 -20 -20 -34 -11 -14 -20 -32 -20 -41
0 -8 -7 -20 -15 -26 -8 -6 -19 -35 -25 -64 -9 -52 -53 -157 -70 -167 -5 -3
-16 -29 -25 -58 -10 -28 -21 -56 -26 -62 -11 -11 -12 -65 -1 -65 4 0 14 -21
21 -48 7 -26 21 -58 30 -72 12 -19 16 -52 17 -137 1 -104 3 -115 27 -151 15
-21 27 -42 27 -47 0 -12 41 -55 53 -55 5 0 42 -25 82 -55 39 -30 76 -55 81
-55 33 0 74 -85 74 -151 0 -32 -7 -43 -46 -78 -52 -46 -95 -61 -171 -61 -28 0
-55 -4 -58 -10 -8 -12 -192 -14 -199 -1 -3 4 -46 11 -97 15 -60 5 -103 13
-127 26 -20 11 -42 20 -49 20 -6 0 -30 21 -53 48 -51 58 -74 71 -124 72 -40 0
-76 22 -76 46 0 7 -12 21 -27 32 -27 20 -28 23 -29 120 -1 104 -6 122 -30 122
-8 0 -14 7 -14 15 0 7 -6 18 -14 22 -13 8 -25 85 -42 268 -3 39 -10 75 -15 80
-4 6 -16 51 -25 100 -15 77 -24 99 -63 153 -24 34 -49 62 -53 62 -5 0 -12 8
-15 17 -8 21 -28 43 -40 43 -4 0 -26 19 -48 43 -40 42 -40 42 -112 41 -61 0
-77 -4 -110 -27 -67 -47 -167 -124 -214 -166 -25 -23 -51 -41 -57 -41 -7 0
-12 -4 -12 -8 0 -5 -29 -40 -65 -78 -35 -38 -65 -74 -65 -81 0 -7 -9 -17 -20
-23 -11 -6 -20 -17 -20 -25 0 -7 -8 -16 -17 -19 -10 -3 -27 -27 -37 -53 -11
-27 -22 -50 -25 -53 -4 -3 -12 -16 -19 -30 -7 -14 -26 -47 -42 -75 -17 -27
-35 -61 -41 -75 -21 -49 -51 -115 -60 -132 -5 -10 -9 -49 -9 -87 0 -39 -4 -73
-10 -76 -5 -3 -10 -28 -10 -54 0 -37 -7 -57 -29 -88 -34 -47 -75 -81 -107 -89
-14 -4 -31 -23 -44 -47 -32 -63 -99 -118 -221 -180 -79 -41 -121 -57 -150 -57
-21 0 -39 -4 -39 -10 0 -13 -247 -13 -255 0 -3 5 -18 10 -33 10 -15 0 -38 7
-51 16 -74 52 -66 235 14 315 19 19 35 38 35 42 0 5 13 19 29 33 17 14 33 35
37 47 4 12 13 26 19 32 7 5 18 34 25 63 7 28 16 55 22 58 5 3 1 14 -11 25 -11
10 -23 35 -27 54 -7 42 13 164 31 185 8 8 19 53 25 100 7 47 16 89 21 95 12
12 12 178 0 190 -5 6 -14 64 -20 129 -8 92 -16 132 -35 170 -14 28 -44 92 -68
141 -23 50 -58 115 -78 145 -19 30 -40 67 -46 81 -12 26 -45 39 -100 39 -14 0
-32 4 -42 9 -9 5 -33 16 -52 25 -79 38 -87 45 -100 91 -7 25 -16 45 -20 45 -4
0 -15 27 -24 59 -9 32 -23 64 -31 71 -8 7 -15 18 -15 26 0 7 -13 34 -29 60
-17 25 -33 59 -36 75 -4 16 -11 31 -16 34 -5 4 -9 15 -9 26 0 10 -4 19 -10 19
-6 0 -10 48 -10 125 0 77 4 125 10 125 6 0 10 11 10 24 0 14 4 27 9 30 4 3 11
20 15 37 8 43 63 137 87 149 10 6 19 16 19 23 1 18 111 140 225 247 55 52 104
101 109 109 4 7 25 30 46 51 47 47 50 66 47 285 -2 158 0 172 19 205 12 19 27
53 34 75 7 22 18 45 25 50 6 6 18 29 25 52 7 23 19 44 26 47 8 3 14 19 14 36
0 17 10 50 22 73 71 138 104 211 123 277 9 30 21 63 26 72 11 22 12 191 0 203
-10 12 -31 140 -31 193 0 50 27 75 100 91 59 14 192 10 251 -6 20 -6 51 -21
68 -34 26 -19 44 -24 89 -23 65 1 168 20 196 36 50 27 642 40 1117 24 212 -8
261 -7 287 5 18 8 32 17 32 21 0 5 4 8 10 8 5 0 30 16 56 35 25 19 50 35 56
35 5 0 21 9 35 20 14 11 34 20 44 20 11 0 19 5 19 10 0 6 12 15 26 20 15 6 39
19 54 30 16 11 38 20 49 20 12 0 21 5 21 10 0 6 32 10 75 10 l74 0 6 -37z"/>
</g>
</svg>
